<?xml version="1.0" encoding="UTF-8" standalone="no"?>
<!-- Creator: CorelDRAW -->

<svg
   xmlns:dc="http://purl.org/dc/elements/1.1/"
   xmlns:cc="http://creativecommons.org/ns#"
   xmlns:rdf="http://www.w3.org/1999/02/22-rdf-syntax-ns#"
   xmlns:svg="http://www.w3.org/2000/svg"
   xmlns="http://www.w3.org/2000/svg"
   xmlns:sodipodi="http://sodipodi.sourceforge.net/DTD/sodipodi-0.dtd"
   xmlns:inkscape="http://www.inkscape.org/namespaces/inkscape"
   xml:space="preserve"
   width="256"
   height="256"
   style="fill-rule:evenodd"
   viewBox="0 0 72.24889 72.248891"
   id="svg2"
   version="1.1"
   inkscape:version="0.48.3.1 r9886"
   sodipodi:docname="start-here-symbolic.svg"
   inkscape:export-filename="/home/alumno/.icons/huayra-dev/22x22/all/start-here.png"
   inkscape:export-xdpi="123"
   inkscape:export-ydpi="123"><metadata
   id="metadata336"><rdf:RDF><cc:Work
       rdf:about=""><dc:format>image/svg+xml</dc:format><dc:type
         rdf:resource="http://purl.org/dc/dcmitype/StillImage" /><dc:title></dc:title></cc:Work></rdf:RDF></metadata><sodipodi:namedview
   pagecolor="#9b9b9b"
   bordercolor="#666666"
   borderopacity="1"
   objecttolerance="10"
   gridtolerance="10"
   guidetolerance="10"
   inkscape:pageopacity="0"
   inkscape:pageshadow="2"
   inkscape:window-width="1914"
   inkscape:window-height="1030"
   id="namedview334"
   showgrid="false"
   inkscape:zoom="1.2251098"
   inkscape:cx="43.343919"
   inkscape:cy="36.118578"
   inkscape:window-x="0"
   inkscape:window-y="25"
   inkscape:window-maximized="1"
   inkscape:current-layer="svg2" />
 <defs
   id="defs4"><inkscape:path-effect
     effect="skeletal"
     id="path-effect3279"
     is_visible="true"
     pattern="M 0,5 C 0,2.24 2.24,0 5,0 7.76,0 10,2.24 10,5 10,7.76 7.76,10 5,10 2.24,10 0,7.76 0,5 z"
     copytype="single_stretched"
     prop_scale="1"
     scale_y_rel="false"
     spacing="0"
     normal_offset="0"
     tang_offset="0"
     prop_units="false"
     vertical_pattern="false"
     fuse_tolerance="0" /><inkscape:path-effect
     effect="skeletal"
     id="path-effect3245"
     is_visible="true"
     pattern="M 0,5 C 0,2.24 2.24,0 5,0 7.76,0 10,2.24 10,5 10,7.76 7.76,10 5,10 2.24,10 0,7.76 0,5 z"
     copytype="single"
     prop_scale="0.07"
     scale_y_rel="true"
     spacing="0.3"
     normal_offset="0"
     tang_offset="0"
     prop_units="false"
     vertical_pattern="false"
     fuse_tolerance="0" /><style
     type="text/css"
     id="style6">
   
    .fil0 {fill:#99AE6A}
    .fil4 {fill:#73A848}
    .fil8 {fill:#6F448A;fill-rule:nonzero}
    .fil1 {fill:#99AE6A;fill-rule:nonzero}
    .fil3 {fill:#ABA0C0;fill-rule:nonzero}
    .fil2 {fill:#BA8FBA;fill-rule:nonzero}
    .fil5 {fill:#73A848;fill-rule:nonzero}
    .fil6 {fill:#98227A;fill-rule:nonzero}
    .fil9 {fill:#B299BF;fill-rule:nonzero}
    .fil7 {fill:#D189B2;fill-rule:nonzero}
   
  </style></defs>
 
<path
   sodipodi:type="arc"
   style="fill:#2c89a0;fill-opacity:1;stroke:none"
   id="path3142"
   sodipodi:cx="7.77387"
   sodipodi:cy="11.689199"
   sodipodi:rx="0.95595151"
   sodipodi:ry="0.95595151"
   d="m 8.7270582,11.616566 a 0.95595151,0.95595151 0 1 1 -0.00181,-0.02081"
   transform="matrix(-0.53062005,0,0,0.53062005,4.4018911,78.475867)"
   sodipodi:start="6.2071318"
   sodipodi:end="12.46847"
   sodipodi:open="true" /><path
   sodipodi:type="arc"
   style="fill:#37abc8;fill-opacity:1;fill-rule:evenodd;stroke:none"
   id="path3142-3"
   sodipodi:cx="7.77387"
   sodipodi:cy="11.689199"
   sodipodi:rx="0.95595151"
   sodipodi:ry="0.95595151"
   d="m 8.7270582,11.616566 a 0.95595151,0.95595151 0 1 1 -0.00181,-0.02081"
   transform="matrix(-0.45673841,0,0,0.45673841,3.9944893,78.915702)"
   sodipodi:start="6.2071318"
   sodipodi:end="12.46847"
   sodipodi:open="true" /><path
   sodipodi:type="arc"
   style="fill:#5fbcd3;fill-opacity:1;fill-rule:evenodd;stroke:none"
   id="path3142-36"
   sodipodi:cx="7.77387"
   sodipodi:cy="11.689199"
   sodipodi:rx="0.95595151"
   sodipodi:ry="0.95595151"
   d="m 8.7270582,11.616566 a 0.95595151,0.95595151 0 1 1 -0.00181,-0.02081"
   transform="matrix(-0.35599104,0,0,0.35599104,3.5259188,79.778732)"
   sodipodi:start="6.2071318"
   sodipodi:end="12.46847"
   sodipodi:open="true" /><path
   sodipodi:type="arc"
   style="fill:#afdde9;fill-opacity:1;fill-rule:evenodd;stroke:none"
   id="path3142-0"
   sodipodi:cx="7.77387"
   sodipodi:cy="11.689199"
   sodipodi:rx="0.95595151"
   sodipodi:ry="0.95595151"
   d="m 8.7270582,11.616566 a 0.95595151,0.95595151 0 1 1 -0.00181,-0.02081"
   transform="matrix(-0.30225911,0,0,0.30225911,3.4934704,80.201344)"
   sodipodi:start="6.2071318"
   sodipodi:end="12.46847"
   sodipodi:open="true" /><rect
   style="opacity:0.91000001;fill:#37abc8;fill-opacity:1;stroke:none"
   id="rect3176"
   width="2.8702447"
   height="2.2519207"
   x="51.730152"
   y="63.840084"
   rx="0.11068757"
   ry="0.18320709"
   transform="matrix(0.74420829,0.66794762,-0.66794762,0.74420829,0,0)" /><path
   style="fill:#dbe3e2;fill-opacity:1"
   d="m -3.3265381,83.163609 c -0.011287,-0.0026 -0.038792,0.01058 -0.087828,0.04254 -0.1295273,0.08441 -0.4345799,0.31371 -0.7296576,0.431884 -0.012853,-0.01265 -0.0251,-0.02444 -0.03972,-0.03565 -0.00344,-0.0026 -0.00838,-0.0026 -0.011911,-0.0052 0.1522078,-0.201647 0.3721225,-0.520898 0.4401017,-0.625571 0.039159,-0.0603 0.055547,-0.110887 0.040432,-0.11266 -0.00907,-0.0011 -0.028522,0.017 -0.063698,0.05868 -0.093391,0.110648 -0.3524967,0.38874 -0.5542518,0.611374 -0.039159,-0.01207 -0.079641,-0.02214 -0.1263704,-0.02515 0.05876,-0.197865 0.121029,-0.489178 0.1334569,-0.597382 0.00821,-0.07143 0.0087,-0.122974 -0.00352,-0.119007 -0.00733,0.0024 -0.020834,0.0236 -0.039569,0.07482 -0.049405,0.135067 -0.1354641,0.375019 -0.2469012,0.650024 -0.031371,0.0042 -0.06398,0.009 -0.097934,0.01692 -0.019798,-0.113257 -0.050785,-0.205485 -0.067518,-0.281267 -0.024493,-0.110927 -0.048862,-0.176702 -0.051628,-0.04082 -0.00208,0.101911 -0.018082,0.196952 -0.012632,0.358275 0.00181,0.05378 0.00516,0.116891 0.013074,0.188266 l 0.1024785,-0.04039 c 0.501124,-0.160943 0.6730485,0.514435 0.2437801,0.638062 l 0.087504,0.166802 -0.00275,0.0031 c 0.00112,0.0021 0.00498,0.0034 0.00611,0.0055 0.092778,0.174995 0.2232367,0.406259 0.2969843,0.492733 0.055613,0.06521 0.099131,0.105824 0.039017,-0.03118 -0.058029,-0.13226 -0.1047844,-0.265678 -0.1996746,-0.521245 0.023119,-0.0144 0.044128,-0.03011 0.064325,-0.04708 0.2040291,0.133434 0.4712793,0.254095 0.5649379,0.286383 0.1088267,0.03752 0.2137686,0.02851 0.042937,-0.06628 -0.139211,-0.07724 -0.317914,-0.19458 -0.5012404,-0.34506 0.015997,-0.02591 0.033563,-0.05302 0.045053,-0.08093 0.2584457,0.0886 0.6148277,0.145002 0.7292361,0.152498 0.1222614,0.008 0.228808,-0.02921 0.024919,-0.07693 -0.1871722,-0.04381 -0.4418884,-0.126133 -0.7110491,-0.246512 0.00114,-0.01451 5.28e-4,-0.02913 5.507e-4,-0.04364 0.2633351,0.0049 0.6164698,-0.04561 0.8161358,-0.12257 0.1143257,-0.04407 0.2068666,-0.119636 0.0051,-0.06714 -0.1906014,0.04959 -0.5434175,0.04466 -0.8568731,0.01429 -0.00716,-0.02119 -0.010935,-0.04286 -0.020836,-0.06284 0.260627,-0.09396 0.5890912,-0.40579 0.6682372,-0.492527 0.051618,-0.05657 0.080008,-0.10079 0.061193,-0.105058 z m -1.1665302,0.740388 c -0.075272,-0.05787 -0.1846951,-0.04473 -0.2425606,0.03054 -0.057866,0.07527 -0.04473,0.184695 0.030543,0.242561 0.075272,0.05787 0.1846952,0.04473 0.2425607,-0.03054 l 0.00275,-0.0031 c 0.055333,-0.07533 0.040819,-0.182527 -0.033293,-0.239501 z"
   id="_121731384"
   inkscape:connector-curvature="0" /><rect
   style="opacity:0.91000001;fill:#37abc8;fill-opacity:1;fill-rule:evenodd;stroke:none"
   id="rect3176-7"
   width="2.8702447"
   height="0.64122486"
   x="35.342083"
   y="73.519958"
   rx="0.11068757"
   ry="0.052167438"
   inkscape:transform-center-x="-5.0145099"
   inkscape:transform-center-y="1.4153739"
   transform="matrix(0.88001899,0.47493851,-0.47493851,0.88001899,0,0)" /><rect
   style="fill:#dbe3e2;fill-opacity:1;stroke:none"
   id="rect3196"
   width="0.46867964"
   height="0.5294987"
   x="88.748436"
   y="92.001961"
   transform="matrix(0.88845162,0.45897028,-0.89481159,0.44644397,0,0)"
   rx="0.034856185"
   ry="0.061438933" /><rect
   style="fill:#dbe3e2;fill-opacity:1;fill-rule:evenodd;stroke:none"
   id="rect3196-2"
   width="0.46867964"
   height="0.5294987"
   x="89.664764"
   y="92.000351"
   transform="matrix(0.88845162,0.45897028,-0.89481159,0.44644397,0,0)"
   rx="0.034856182"
   ry="0.061438926" /><rect
   style="fill:#dbe3e2;fill-opacity:1;fill-rule:evenodd;stroke:none"
   id="rect3196-3"
   width="0.46867964"
   height="0.5294987"
   x="90.54377"
   y="92.020012"
   transform="matrix(0.88845162,0.45897028,-0.89481159,0.44644397,0,0)"
   rx="0.034856182"
   ry="0.061438926" /><path
   style="fill:#d7eef4;fill-opacity:1;fill-rule:evenodd"
   d="m 3.0584836,82.502618 c -0.014312,-0.0029 -0.048589,0.01454 -0.1094366,0.05635 -0.1607256,0.110449 -0.5383095,0.409026 -0.9067509,0.567167 -0.016598,-0.01556 -0.032405,-0.03005 -0.051189,-0.04373 -0.00441,-0.0032 -0.010646,-0.003 -0.015177,-0.0061 0.1856974,-0.258979 0.4531413,-0.668354 0.5356272,-0.80245 0.047516,-0.07724 0.066616,-0.141547 0.047503,-0.143315 -0.011479,-0.0011 -0.035442,0.02232 -0.07851,0.07596 -0.1143503,0.142416 -0.4324822,0.501106 -0.6800136,0.788087 -0.049753,-0.01401 -0.1011133,-0.02545 -0.1601314,-0.02781 0.067974,-0.251327 0.1374945,-0.620598 0.1498215,-0.757428 0.00815,-0.09032 0.00716,-0.155342 -0.00812,-0.14996 -0.00917,0.0032 -0.025542,0.0304 -0.047585,0.09557 -0.05812,0.171848 -0.1592246,0.477089 -0.291245,0.827318 -0.039428,0.0063 -0.080401,0.01333 -0.1229738,0.02436 C 1.291837,82.864431 1.249911,82.74909 1.226467,82.654045 1.192151,82.514923 1.159388,82.432733 1.160101,82.604165 c 5.275e-4,0.128574 -0.016712,0.248916 -0.00486,0.452178 0.00396,0.06775 0.010116,0.14724 0.022306,0.237 l 0.1279776,-0.05414 c 0.6269477,-0.218449 0.8646261,0.627891 0.327138,0.797056 l 0.1155,0.207634 -0.00337,0.0039 c 0.00153,0.0027 0.00643,0.0041 0.00786,0.0067 0.1224024,0.217802 0.2940613,0.505392 0.3897315,0.612157 0.072146,0.08051 0.1282758,0.130381 0.048261,-0.0405 -0.077253,-0.164991 -0.1403362,-0.331786 -0.2678947,-0.651124 0.028742,-0.01884 0.054716,-0.03934 0.079659,-0.06136 0.2614079,0.161953 0.6021423,0.305846 0.7212446,0.343665 0.1383896,0.04395 0.2704446,0.02935 0.052093,-0.08491 -0.1779307,-0.0931 -0.4069045,-0.23554 -0.6427329,-0.419628 0.019408,-0.03313 0.040687,-0.0679 0.054308,-0.103446 0.3286311,0.103738 0.7797741,0.163838 0.9242762,0.169753 0.1544241,0.0063 0.2876248,-0.04391 0.029036,-0.09779 -0.2373772,-0.04946 -0.5611194,-0.145396 -0.9042565,-0.28887 9.853e-4,-0.01833 -2.37e-4,-0.03675 -6.497e-4,-0.05504 0.3322203,-0.0019 0.7759626,-0.07657 1.025363,-0.179794 0.142798,-0.05911 0.2571647,-0.157254 0.00435,-0.08483 -0.2388188,0.06842 -0.6838746,0.07311 -1.0800831,0.04451 -0.00968,-0.02649 -0.015114,-0.05371 -0.028217,-0.07859 0.3257474,-0.126543 0.7303026,-0.529917 0.8274242,-0.641739 0.063341,-0.07293 0.097768,-0.129577 0.073918,-0.13437 z m -1.4481121,0.9697 c -0.096712,-0.07064 -0.2342855,-0.05069 -0.3049262,0.04601 -0.070638,0.09671 -0.050693,0.234285 0.046014,0.304926 0.096712,0.07064 0.2342847,0.05069 0.3049264,-0.04601 l 0.00337,-0.0039 c 0.067451,-0.09671 0.045834,-0.231434 -0.049383,-0.300986 z"
   id="_121731384-6"
   inkscape:connector-curvature="0"
   inkscape:transform-center-x="-2.8385821"
   inkscape:transform-center-y="-0.54313032" /><path
   style="fill:#87cdde;fill-opacity:1;fill-rule:evenodd"
   d="m -6.9512284,82.122469 c -0.011531,9.87e-4 -0.033752,0.02185 -0.070782,0.06718 -0.097811,0.119733 -0.3189127,0.430777 -0.5642259,0.632909 -0.016086,-0.0082 -0.031332,-0.01568 -0.048664,-0.02192 -0.00407,-0.0015 -0.00878,4.9e-5 -0.012914,-0.0013 0.08385,-0.238318 0.1965358,-0.609243 0.2295517,-0.729608 0.01902,-0.06933 0.019284,-0.122513 0.00434,-0.119616 -0.00897,0.0017 -0.02202,0.02485 -0.042893,0.07524 -0.055421,0.133769 -0.2179333,0.477368 -0.342629,0.750721 -0.040976,3.78e-4 -0.082605,0.0031 -0.1280454,0.01437 -0.00405,-0.206365 -0.033096,-0.502839 -0.054083,-0.609713 -0.013845,-0.07055 -0.029025,-0.119817 -0.039466,-0.112328 -0.00626,0.0045 -0.012691,0.02881 -0.015004,0.0833 -0.00609,0.14369 -0.015296,0.398442 -0.038041,0.694295 -0.028608,0.01355 -0.058233,0.02799 -0.088186,0.04583 -0.053223,-0.101913 -0.1107312,-0.18039 -0.149669,-0.247524 -0.056995,-0.09827 -0.1001721,-0.153547 -0.06158,-0.02323 0.028938,0.09774 0.042527,0.193154 0.096664,0.345221 0.018052,0.05069 0.040379,0.109815 0.069578,0.175424 l 0.085385,-0.06961 c 0.4286711,-0.305406 0.7974056,0.285972 0.4258816,0.534014 l 0.1339881,0.13239 -0.00169,0.0037 c 0.00176,0.0017 0.00581,0.0017 0.00747,0.0034 0.1414983,0.138597 0.3359738,0.319376 0.4324823,0.379399 0.072779,0.04526 0.1265654,0.07076 0.027741,-0.04154 -0.095415,-0.108425 -0.1804457,-0.221368 -0.3484038,-0.436097 0.017694,-0.02072 0.032913,-0.04208 0.047008,-0.06438 0.2348966,0.06524 0.5261583,0.09913 0.6251982,0.101477 0.1150801,0.0027 0.2123424,-0.03769 0.020802,-0.07618 -0.1560851,-0.03136 -0.3619655,-0.08895 -0.5823069,-0.176714 0.00742,-0.02952 0.015897,-0.0607 0.018373,-0.09078 0.2731379,0.006 0.6298315,-0.04838 0.7411214,-0.07595 0.1189314,-0.02946 0.209159,-0.09726 3.943e-4,-0.08087 -0.1916399,0.01504 -0.4593254,0.01388 -0.7523228,-0.01916 -0.00332,-0.01417 -0.00834,-0.02792 -0.012711,-0.04175 0.2524198,-0.07519 0.5735721,-0.2305 0.7404752,-0.364414 0.095561,-0.07668 0.1608197,-0.176759 -0.015515,-0.06553 -0.1665749,0.105077 -0.5042543,0.20743 -0.8121475,0.273599 -0.013253,-0.01801 -0.023424,-0.03753 -0.038919,-0.05355 0.2198329,-0.168608 0.4382029,-0.565396 0.4873011,-0.672057 0.032022,-0.06956 0.045649,-0.120317 0.026434,-0.118672 z m -0.8869024,1.05942 c -0.089283,-0.0323 -0.1895604,0.01342 -0.2218599,0.102697 -0.032296,0.08928 0.013418,0.18956 0.1026978,0.22186 0.089283,0.0323 0.1895598,-0.01342 0.2218601,-0.102697 l 0.00169,-0.0037 c 0.029871,-0.08858 -0.016482,-0.186316 -0.1043866,-0.218118 z"
   id="_121731384-6-5"
   inkscape:connector-curvature="0"
   inkscape:transform-center-x="-1.8410954"
   inkscape:transform-center-y="-1.1260345" /><path
   style="fill:#87cdde;fill-rule:evenodd;stroke:none"
   d="m -10.942039,82.982997 c 0,0 0.9859223,0.501399 1.4397803,1.108631 0.157824,0.211158 0.5039233,0.755885 0.5039233,0.755885 0,0 -3e-7,-0.345548 0.2879558,-0.806277 0.2879562,-0.46073 0.6479011,-0.633503 0.6479011,-0.633503 -0.5762993,0.320485 -0.6951645,0.508889 -0.9790505,0.993448 0,0 -0.4063715,-0.98349 -0.8854649,-1.454178 -0.4103381,-0.403139 -0.6263041,-0.489525 -0.6263041,-0.489525 -0.09809,0.09969 -0.263744,0.337783 -0.388741,0.525519 z"
   id="path3277"
   inkscape:connector-curvature="0"
   sodipodi:nodetypes="cscsccscc" /><path
   style="opacity:0.38999999;fill:#88aa00;fill-opacity:1;fill-rule:evenodd"
   d="m -6.5516385,87.917742 c -0.010483,0.0049 -0.024148,0.03215 -0.043276,0.08747 -0.050526,0.146117 -0.150813,0.514324 -0.3113817,0.788648 -0.017913,-0.0021 -0.034816,-0.0039 -0.053236,-0.0038 -0.00433,2.4e-5 -0.00822,0.0031 -0.012574,0.0032 -0.00347,-0.252615 -0.025597,-0.639647 -0.03611,-0.764014 -0.00605,-0.07164 -0.024144,-0.121649 -0.037172,-0.113776 -0.00782,0.0047 -0.012099,0.03092 -0.014319,0.08541 -0.0059,0.144675 -0.039961,0.523238 -0.062751,0.822824 -0.038333,0.01448 -0.07648,0.03137 -0.1152361,0.05764 -0.074961,-0.192313 -0.2044552,-0.460588 -0.2610073,-0.55367 -0.037323,-0.06145 -0.06856,-0.10246 -0.075778,-0.09183 -0.00433,0.0064 -0.00198,0.03142 0.014639,0.08336 0.043831,0.136977 0.1230326,0.379279 0.2036985,0.664829 -0.022181,0.02258 -0.045011,0.04635 -0.066973,0.07343 -0.0851,-0.07731 -0.1661419,-0.131144 -0.2258405,-0.180733 -0.087384,-0.07259 -0.1469747,-0.109589 -0.065814,-5.72e-4 0.060865,0.08176 0.1065221,0.166643 0.2097743,0.290715 0.034423,0.04135 0.075769,0.08916 0.1258006,0.140674 l 0.056146,-0.09478 c 0.2970701,-0.434489 0.8471086,-0.0065 0.5839003,0.35441 l 0.1714212,0.07807 -2.967e-4,0.0041 c 0.00224,9.88e-4 0.00605,-3.89e-4 0.00817,5.87e-4 0.1806131,0.08131 0.4254974,0.183938 0.5367839,0.207001 0.083923,0.01739 0.1432021,0.02278 0.011717,-0.04855 -0.12695,-0.06887 -0.2457107,-0.14557 -0.4774108,-0.289214 0.00946,-0.02555 0.016384,-0.05085 0.021925,-0.07664 0.2429862,-0.01976 0.5280697,-0.08838 0.6218455,-0.120328 0.108967,-0.03711 0.186323,-0.108598 -0.00674,-0.07868 -0.1573271,0.02438 -0.3704378,0.04132 -0.6075279,0.03491 -0.00322,-0.03027 -0.00601,-0.06246 -0.014058,-0.09155 0.2584585,-0.08854 0.5745223,-0.262587 0.6694804,-0.32684 0.1014774,-0.06867 0.1627952,-0.163414 -0.027516,-0.07605 -0.1746996,0.0802 -0.426368,0.171414 -0.7127873,0.241435 -0.008,-0.01216 -0.017456,-0.02333 -0.026327,-0.0348 0.2110099,-0.157623 0.4589132,-0.414143 0.569404,-0.597395 0.063259,-0.104929 0.090006,-0.221372 -0.037158,-0.05616 -0.1201275,0.15607 -0.4018033,0.368584 -0.6679967,0.536863 -0.018652,-0.01234 -0.034927,-0.02715 -0.054998,-0.03685 0.148211,-0.23407 0.2163677,-0.681821 0.2256757,-0.798871 0.00607,-0.07634 0.00136,-0.128678 -0.016108,-0.120509 z m -0.4671983,1.300267 c -0.094943,4.71e-4 -0.1733077,0.07796 -0.1728411,0.1729 4.713e-4,0.09494 0.077959,0.173307 0.1729008,0.17284 0.094944,-4.71e-4 0.1733071,-0.07796 0.1728413,-0.1729 l 2.967e-4,-0.0041 c -0.00251,-0.09345 -0.079717,-0.169205 -0.1731965,-0.168745 z"
   id="_121731384-6-5-8-08"
   inkscape:connector-curvature="0"
   inkscape:transform-center-x="-1.014529"
   inkscape:transform-center-y="-1.729018" /><path
   style="fill:#89a02c;fill-opacity:1;fill-rule:evenodd"
   d="m -5.644248,87.599077 c -0.011531,9.88e-4 -0.033752,0.02185 -0.070782,0.06718 -0.097811,0.119733 -0.3189127,0.430777 -0.5642259,0.632909 -0.016086,-0.0082 -0.031332,-0.01568 -0.048664,-0.02192 -0.00407,-0.0015 -0.00878,4.9e-5 -0.012914,-0.0013 0.08385,-0.238318 0.1965358,-0.609243 0.2295517,-0.729608 0.01902,-0.06933 0.019284,-0.122513 0.00434,-0.119616 -0.00897,0.0017 -0.02202,0.02485 -0.042893,0.07524 -0.055421,0.133769 -0.2179333,0.477368 -0.342629,0.750722 -0.040976,3.78e-4 -0.082605,0.0031 -0.1280454,0.01437 -0.00405,-0.206366 -0.033096,-0.50284 -0.054083,-0.609714 -0.013845,-0.07055 -0.029025,-0.119817 -0.039466,-0.112328 -0.00626,0.0045 -0.012691,0.02881 -0.015004,0.0833 -0.00609,0.14369 -0.015296,0.398442 -0.038041,0.694294 -0.028608,0.01355 -0.058233,0.02799 -0.088186,0.04583 -0.053223,-0.101912 -0.1107312,-0.18039 -0.149669,-0.247523 -0.056995,-0.09827 -0.1001721,-0.153547 -0.06158,-0.02323 0.028938,0.09774 0.042527,0.193154 0.096664,0.34522 0.018052,0.05069 0.040379,0.109816 0.069578,0.175425 l 0.085385,-0.06961 c 0.428671,-0.305406 0.7974055,0.285972 0.4258815,0.534014 l 0.1339881,0.13239 -0.00169,0.0037 c 0.00176,0.0017 0.00581,0.0017 0.00747,0.0034 0.1415003,0.138597 0.3359758,0.319376 0.4324843,0.379399 0.072779,0.04526 0.1265654,0.07076 0.027741,-0.04154 -0.095415,-0.108425 -0.1804457,-0.221368 -0.3484038,-0.436098 0.017694,-0.02072 0.032913,-0.04208 0.047008,-0.06438 0.2348966,0.06524 0.5261583,0.09913 0.6251982,0.101478 0.1150802,0.0027 0.2123425,-0.03769 0.020802,-0.07618 -0.1560851,-0.03136 -0.3619655,-0.08895 -0.5823069,-0.176714 0.00742,-0.02952 0.015897,-0.06071 0.018373,-0.09078 0.2731379,0.006 0.6298315,-0.04838 0.7411215,-0.07594 0.1189313,-0.02946 0.2091589,-0.09726 3.942e-4,-0.08087 -0.1916399,0.01504 -0.4593254,0.01388 -0.7523228,-0.01916 -0.00332,-0.01417 -0.00834,-0.02792 -0.012711,-0.04175 0.2524198,-0.0752 0.5735721,-0.2305 0.7404752,-0.364414 0.095561,-0.07668 0.1608198,-0.176759 -0.015515,-0.06553 -0.1665759,0.105076 -0.5042553,0.207429 -0.8121485,0.273598 -0.013253,-0.01801 -0.023424,-0.03752 -0.038919,-0.05355 0.2198329,-0.168608 0.4382029,-0.565396 0.4873011,-0.672057 0.032022,-0.06956 0.045649,-0.120317 0.026434,-0.118673 z m -0.8869024,1.059421 c -0.089283,-0.0323 -0.1895604,0.01342 -0.2218599,0.102697 -0.032296,0.08928 0.013418,0.18956 0.1026978,0.221859 0.089283,0.0323 0.1895598,-0.01342 0.2218601,-0.102697 l 0.00169,-0.0037 c 0.02987,-0.08858 -0.016483,-0.186315 -0.1043876,-0.218117 z"
   id="_121731384-6-5-8-5"
   inkscape:connector-curvature="0"
   inkscape:transform-center-x="-0.14664211"
   inkscape:transform-center-y="-0.089687971" /><path
   style="fill:#006680;fill-opacity:1;fill-rule:evenodd"
   d="m -4.9755507,87.529152 c -0.011526,-10e-4 -0.037051,0.01562 -0.081432,0.05378 -0.1172278,0.1008 -0.3892783,0.368424 -0.6661371,0.524582 -0.014412,-0.01085 -0.028111,-0.02091 -0.044086,-0.03008 -0.00375,-0.0022 -0.00865,-0.0015 -0.012487,-0.0035 0.1242026,-0.22 0.2999685,-0.565528 0.3535084,-0.678272 0.030843,-0.06494 0.040395,-0.117259 0.025174,-0.117018 -0.00914,1.38e-4 -0.026024,0.02062 -0.05538,0.06658 -0.077943,0.122027 -0.2979935,0.431943 -0.4685353,0.679303 -0.040411,-0.0068 -0.081871,-0.01141 -0.1285872,-0.0082 0.032072,-0.203899 0.055276,-0.500887 0.053287,-0.609784 -0.0013,-0.07188 -0.00764,-0.123045 -0.019231,-0.117496 -0.00695,0.0033 -0.01753,0.02615 -0.029328,0.0794 -0.031104,0.140415 -0.084682,0.389639 -0.1587734,0.676966 -0.030536,0.0083 -0.062227,0.01738 -0.094838,0.02972 -0.034597,-0.109645 -0.077507,-0.196964 -0.1041154,-0.269868 -0.038948,-0.106713 -0.071801,-0.168689 -0.056573,-0.03363 0.011415,0.10129 0.00812,0.197613 0.034855,0.3568 0.00892,0.05306 0.020569,0.115181 0.037855,0.184883 l 0.096234,-0.05362 c 0.4754414,-0.225804 0.7351685,0.420907 0.3260186,0.600215 l 0.1087935,0.153765 -0.00232,0.0034 c 0.00144,0.002 0.00542,0.0027 0.00677,0.0046 0.1151045,0.161191 0.2749996,0.37317 0.3595353,0.449133 0.06375,0.05728 0.1122542,0.09179 0.034572,-0.03605 -0.075001,-0.123427 -0.1389888,-0.24949 -0.2668421,-0.490264 0.021042,-0.01731 0.03976,-0.03568 0.057534,-0.05518 0.2198831,0.105281 0.5007424,0.189541 0.5978481,0.20916 0.112831,0.02281 0.2156614,-6e-6 0.033794,-0.07138 -0.1482018,-0.05817 -0.3408524,-0.150841 -0.5424687,-0.275755 0.012465,-0.02777 0.02626,-0.05699 0.033953,-0.08618 0.2678857,0.05364 0.6285948,0.06242 0.74299,0.05472 0.12225,-0.0082 0.2229352,-0.05921 0.014519,-0.07956 -0.19132,-0.01867 -0.4546844,-0.06659 -0.7374014,-0.150318 -7.928e-4,-0.01453 -0.00333,-0.02895 -0.00522,-0.04333 0.2616756,-0.02993 0.6050245,-0.126731 0.7927592,-0.22942 0.1074899,-0.0588 0.1892317,-0.145939 -0.00383,-0.06723 -0.1823736,0.07435 -0.5327426,0.116126 -0.8474611,0.127477 -0.0099,-0.02005 -0.016507,-0.04104 -0.028963,-0.05953 0.2459126,-0.127602 0.530256,-0.480129 0.5972363,-0.57657 0.043684,-0.0629 0.06597,-0.110489 0.046764,-0.112227 z m -1.058376,0.888149 c -0.082266,-0.0474 -0.1889887,-0.01991 -0.2363914,0.06235 -0.0474,0.08227 -0.019911,0.188988 0.062351,0.236391 0.082266,0.0474 0.188988,0.01991 0.2363916,-0.06235 l 0.00232,-0.0034 c 0.044889,-0.082 0.016328,-0.186329 -0.064668,-0.233001 z"
   id="_121731384-6-5-8"
   inkscape:connector-curvature="0"
   inkscape:transform-center-x="-2.0070375"
   inkscape:transform-center-y="-0.5918433" /><path
   style="fill:#a9dae8;fill-opacity:1;fill-rule:evenodd;stroke:none"
   d="m -0.18908602,90.425639 c -0.1511305,0.03893 -0.2661364,0.171355 -0.2822222,0.335139 l 0,0.0088 c -0.016022,0.210264 0.142514,0.389672 0.3527778,0.405694 0.2102637,0.01602 0.3896721,-0.142514 0.4056944,-0.352777 0.00332,-0.0436 0.00169,-0.08343 -0.00882,-0.123473 -0.043159,0.01289 -0.093357,0.02128 -0.1411111,0.01764 -0.1651807,-0.01259 -0.2900344,-0.137664 -0.3263189,-0.291042 z"
   id="path3142-38"
   inkscape:connector-curvature="0" /><path
   style="fill:#6ec2d7;fill-opacity:1;fill-rule:evenodd;stroke:none"
   d="m 0.22218678,89.916791 c -0.1681872,0.02077 -0.3091298,0.1513 -0.3263194,0.32632 l 0,0.0088 c -0.01551,0.20354 0.1404174,0.381365 0.3439583,0.396875 0.203541,0.01551 0.3813652,-0.131598 0.396875,-0.335139 0.00173,-0.02265 -0.00655,-0.04874 -0.00882,-0.07055 -0.030622,0.0086 -0.063725,0.01136 -0.097014,0.0088 -0.1628734,-0.01238 -0.2769948,-0.154594 -0.2645826,-0.317467 l 0,-0.0088 c 2.946e-4,-0.003 -3.762e-4,-0.0058 0,-0.0088 -0.015454,-1.9e-5 -0.029081,-0.0019 -0.044097,0 z"
   id="path3142-3-9"
   inkscape:connector-curvature="0" /><path
   style="fill:#35a6c2;fill-opacity:1;fill-rule:evenodd;stroke:none"
   d="m 0.64103278,89.61746 c -0.1603638,-0.01222 -0.2929605,0.104524 -0.3086806,0.264583 l 0,0.0088 c -0.012411,0.162874 0.1017092,0.305089 0.2645833,0.3175 0.092858,0.0071 0.1789557,-0.03405 0.238125,-0.09701 -0.1591185,-0.01212 -0.2767081,-0.149563 -0.2645833,-0.308681 0.00723,-0.0736 0.037585,-0.138759 0.088194,-0.185208 -0.00583,-7.94e-4 -0.011691,4.53e-4 -0.017639,0 z"
   id="path3142-36-7"
   inkscape:connector-curvature="0" /><path
   style="fill:#298196;fill-opacity:1;fill-rule:evenodd"
   d="m 2.9182641,88.355469 c -0.0183,-0.0037 -0.06214,0.0186 -0.13996,0.07207 -0.2055538,0.141255 -0.68845,0.523108 -1.1596537,0.725356 -0.021229,-0.0199 -0.041443,-0.03843 -0.065467,-0.05592 -0.00564,-0.0041 -0.013615,-0.0039 -0.01941,-0.0079 0.2374899,-0.331218 0.5795269,-0.854773 0.685019,-1.026269 0.060769,-0.09879 0.085196,-0.181027 0.060752,-0.183286 -0.014681,-0.0014 -0.045327,0.02854 -0.1004073,0.09715 -0.1462437,0.182136 -0.5531061,0.640869 -0.8696767,1.007892 -0.06363,-0.01792 -0.1293149,-0.03255 -0.2047938,-0.03557 0.086933,-0.321425 0.1758432,-0.79369 0.1916083,-0.968683 0.010423,-0.115513 0.00916,-0.198668 -0.010385,-0.191786 -0.011728,0.0041 -0.032666,0.03888 -0.060857,0.122226 -0.07433,0.219779 -0.2036341,0.610154 -0.37247642,1.058066 -0.050425,0.0081 -0.1028258,0.01704 -0.1572726,0.03115 -0.036405,-0.181868 -0.090024,-0.329379 -0.1200072,-0.450933 -0.043887,-0.177925 -0.085788,-0.283038 -0.084877,-0.06379 6.746e-4,0.164436 -0.021373,0.318342 -0.00622,0.578296 0.00506,0.08665 0.012937,0.188306 0.028527,0.303102 l 0.163672,-0.06924 C 1.4781938,89.018023 1.7821633,90.100417 1.0947639,90.316764 l 0.1477142,0.265545 -0.00431,0.005 c 0.00196,0.0034 0.00822,0.0053 0.010052,0.0086 0.1565418,0.27855 0.3760782,0.646352 0.4984319,0.782896 0.092268,0.102969 0.1640534,0.166745 0.061722,-0.0518 -0.0988,-0.211006 -0.1794777,-0.424323 -0.3426136,-0.832728 0.036758,-0.0241 0.069977,-0.05031 0.1018767,-0.07847 0.3343175,0.207123 0.7700864,0.39115 0.9224077,0.439517 0.176988,0.05621 0.345875,0.03753 0.066622,-0.108587 -0.2275572,-0.119071 -0.5203943,-0.301235 -0.8219979,-0.536667 0.024821,-0.04237 0.052035,-0.08683 0.069455,-0.132298 0.42029,0.132671 0.9972619,0.209534 1.1820669,0.217099 0.197495,0.0081 0.367847,-0.05616 0.03713,-0.125065 -0.303585,-0.06325 -0.7176221,-0.185949 -1.1564639,-0.36944 0.00126,-0.02344 -3.031e-4,-0.04701 -8.309e-4,-0.07039 0.4248802,-0.0024 0.9923868,-0.09793 1.3113478,-0.22994 0.182626,-0.0756 0.328891,-0.201114 0.0056,-0.108486 -0.305428,0.0875 -0.8746143,0.0935 -1.3813297,0.05693 -0.01238,-0.03388 -0.019329,-0.06869 -0.036087,-0.10051 0.4166019,-0.161837 0.9339917,-0.677716 1.0582017,-0.820727 0.08101,-0.09327 0.125037,-0.165717 0.09453,-0.171848 z m -1.8520068,1.240159 c -0.12368612,-0.09034 -0.29963032,-0.06483 -0.38997352,0.05885 -0.09034,0.123686 -0.064832,0.299631 0.058848,0.389974 0.123686,0.09034 0.29962932,0.06483 0.38997372,-0.05885 l 0.00431,-0.005 c 0.086264,-0.123685 0.058617,-0.295983 -0.063157,-0.384934 z"
   id="_121731384-6-3"
   inkscape:connector-curvature="0"
   inkscape:transform-center-x="-1.0245466"
   inkscape:transform-center-y="-0.19604156" /><rect
   style="fill:none;stroke:#87cdde;stroke-width:0.02545875;stroke-miterlimit:4;stroke-opacity:1;stroke-dasharray:none;stroke-dashoffset:5.60999992"
   id="rect3376"
   width="4.4802971"
   height="4.4810777"
   x="-0.57206088"
   y="87.010979"
   rx="0.01106054"
   ry="0.022321397" /><path
   style="fill:#bee3ee;fill-opacity:1;fill-rule:evenodd;stroke:none"
   d="m -0.63563662,89.827537 c -0.2382472,-0.01815 -0.44407578,0.159082 -0.46743048,0.396875 l 0,0.0088 c -0.018439,0.241977 0.15489788,0.457812 0.39687498,0.47625 0.074215,0.0057 0.1479273,-0.0162 0.2116667,-0.0441 0.034407,-0.122078 0.1215779,-0.215957 0.238125,-0.255764 0.011306,-0.03375 0.023631,-0.06873 0.026458,-0.105833 0.018439,-0.241977 -0.1637174,-0.457811 -0.4056945,-0.47625 z"
   id="path3142-38-1"
   inkscape:connector-curvature="0" /><path
   style="fill:#ddf0f6;fill-opacity:1;fill-rule:evenodd;stroke:none"
   d="m -1.4149888,89.46432 c -0.2196008,0.02712 -0.3920696,0.203631 -0.4145139,0.432152 l -0.00882,0.0088 c -0.020252,0.265762 0.1840298,0.500096 0.4497917,0.520348 0.1039195,0.0079 0.1992946,-0.02054 0.2822222,-0.07056 -0.00997,-0.04375 -0.021217,-0.08532 -0.017639,-0.132292 l 0,-0.0088 c 0.01526,-0.155362 0.1089323,-0.286719 0.23812568,-0.352777 -0.03865,-0.210306 -0.20891268,-0.379865 -0.43215278,-0.396875 -0.032708,-0.0025 -0.065642,-0.0039 -0.097014,0 z"
   id="path3142-38-1-4"
   inkscape:connector-curvature="0" /><path
   style="fill:#298196;fill-opacity:1;fill-rule:evenodd"
   d="m 10.395705,88.436913 c -0.02592,-0.0052 -0.08799,0.02633 -0.198173,0.102049 -0.2910509,0.200007 -0.9747989,0.740685 -1.6419919,1.027055 -0.03007,-0.02818 -0.05867,-0.05441 -0.09271,-0.07918 -0.008,-0.0058 -0.01927,-0.0055 -0.02748,-0.01112 0.33627,-0.468982 0.820571,-1.2103 0.969941,-1.453128 0.08604,-0.139877 0.120639,-0.256321 0.08601,-0.259521 -0.02078,-0.0019 -0.06417,0.04042 -0.142169,0.137557 -0.207071,0.257892 -0.78316,0.907427 -1.231403,1.427106 -0.0901,-0.02537 -0.183102,-0.0461 -0.289975,-0.05036 0.123091,-0.455115 0.248984,-1.123811 0.271305,-1.371589 0.01476,-0.163558 0.01303,-0.2813 -0.01471,-0.271555 -0.01659,0.0058 -0.04626,0.05506 -0.08618,0.173062 -0.105246,0.311192 -0.288329,0.863938 -0.527399,1.49815 -0.07141,0.01142 -0.145595,0.02413 -0.222686,0.04411 -0.05156,-0.257512 -0.127463,-0.466377 -0.169924,-0.63849 -0.06215,-0.251929 -0.121472,-0.400763 -0.120182,-0.09032 9.53e-4,0.23283 -0.03027,0.450751 -0.0088,0.818828 0.0072,0.122692 0.01833,0.266629 0.0404,0.429172 l 0.231749,-0.09804 c 1.135316,-0.395579 1.565715,1.137017 0.592405,1.443352 l 0.209152,0.375995 -0.006,0.0071 c 0.0027,0.0048 0.01158,0.0075 0.01422,0.01213 0.221655,0.394407 0.532501,0.915189 0.705746,1.108525 0.130648,0.145798 0.232288,0.236101 0.08739,-0.07334 -0.139894,-0.29877 -0.254128,-0.600812 -0.485118,-1.179086 0.05205,-0.03412 0.09908,-0.07123 0.144251,-0.111116 0.473371,0.293273 1.090391,0.55384 1.306068,0.622329 0.2506019,0.07957 0.4897339,0.05315 0.09434,-0.153754 -0.322206,-0.168596 -0.736843,-0.426529 -1.163893,-0.759886 0.03513,-0.06 0.07369,-0.122951 0.09834,-0.187325 0.595102,0.187853 1.4120559,0.296687 1.6737269,0.307399 0.27964,0.01144 0.520847,-0.07952 0.05258,-0.177085 -0.429942,-0.08947 -1.0161889,-0.263199 -1.6375599,-0.52301 0.0019,-0.0332 -4.39e-4,-0.06656 -0.0011,-0.09967 0.601603,-0.0035 1.4051509,-0.138661 1.8567799,-0.32558 0.258585,-0.107036 0.465687,-0.284763 0.008,-0.153609 -0.432483,0.123893 -1.2384119,0.132397 -1.9558859,0.0806 -0.01752,-0.04798 -0.02737,-0.09727 -0.05109,-0.142315 0.589881,-0.229151 1.3224709,-0.9596 1.4983419,-1.162094 0.114706,-0.132059 0.177045,-0.234643 0.133849,-0.243324 z m -2.6223179,1.755981 c -0.17513,-0.127915 -0.424255,-0.0918 -0.552176,0.08332 -0.127915,0.175131 -0.09179,0.424256 0.08331,0.552177 0.175129,0.127915 0.424254,0.0918 0.552176,-0.08332 l 0.006,-0.0071 c 0.122143,-0.17513 0.083,-0.419092 -0.08942,-0.545042 z"
   id="_121731384-6-3-5"
   inkscape:connector-curvature="0"
   inkscape:transform-center-x="-0.40946718"
   inkscape:transform-center-y="-0.078400927" /><path
   style="fill:#a9dae8;fill-opacity:1;stroke:#a9dae8;stroke-width:0.28222224px;stroke-linecap:butt;stroke-linejoin:miter;stroke-opacity:1"
   d="m 5.4691271,92.722448 1.84851,0"
   id="path5406"
   inkscape:connector-curvature="0"
   sodipodi:nodetypes="cc" /><path
   sodipodi:type="arc"
   style="fill:#a9dae8;fill-opacity:1;fill-rule:evenodd;stroke:none"
   id="path5408-0"
   sodipodi:cx="41.46312"
   sodipodi:cy="33.855541"
   sodipodi:rx="0.67595983"
   sodipodi:ry="0.67595983"
   d="m 42.139079,33.855541 a 0.67595983,0.67595983 0 1 1 -1.351919,0 0.67595983,0.67595983 0 1 1 1.351919,0 z"
   transform="matrix(-0.0058935,0.18821354,-0.5357572,-0.00380986,24.634065,84.782314)" /><path
   sodipodi:type="arc"
   style="fill:#6ec2d7;fill-opacity:1;stroke:none"
   id="path5408"
   sodipodi:cx="41.46312"
   sodipodi:cy="33.855541"
   sodipodi:rx="0.67595983"
   sodipodi:ry="0.67595983"
   d="m 42.139079,33.855541 a 0.67595983,0.67595983 0 1 1 -1.351919,0 0.67595983,0.67595983 0 1 1 1.351919,0 z"
   transform="matrix(0.2388515,0.20762389,-0.23599667,0.43986932,4.6640151,68.396144)" /><path
   sodipodi:type="arc"
   style="fill:#35a6c2;fill-opacity:1;stroke:none"
   id="path5428"
   sodipodi:cx="40.799915"
   sodipodi:cy="34.569763"
   sodipodi:rx="0.94379294"
   sodipodi:ry="0.94379294"
   d="m 41.743708,34.569763 a 0.94379294,0.94379294 0 1 1 -1.887586,0 0.94379294,0.94379294 0 1 1 1.887586,0 z"
   transform="matrix(0.32417418,0,0,0.32417418,-6.2600715,79.883209)" /><path
   sodipodi:type="arc"
   style="fill:#bee3ee;fill-opacity:1;fill-rule:evenodd;stroke:none"
   id="path5428-8"
   sodipodi:cx="40.799915"
   sodipodi:cy="34.569763"
   sodipodi:rx="0.94379294"
   sodipodi:ry="0.94379294"
   d="m 41.743708,34.569763 a 0.94379294,0.94379294 0 1 1 -1.887586,0 0.94379294,0.94379294 0 1 1 1.887586,0 z"
   transform="matrix(0.26746254,0,0,0.26746254,-5.0907873,82.773707)" /><path
   sodipodi:type="arc"
   style="fill:#bee3ee;fill-opacity:1;fill-rule:evenodd;stroke:none"
   id="path5428-8-1"
   sodipodi:cx="40.799915"
   sodipodi:cy="34.569763"
   sodipodi:rx="0.94379294"
   sodipodi:ry="0.94379294"
   d="m 41.743708,34.569763 a 0.94379294,0.94379294 0 1 1 -1.887586,0 0.94379294,0.94379294 0 1 1 1.887586,0 z"
   transform="matrix(0.13000646,0,0,0.13000646,-0.03569712,87.159173)" /><path
   sodipodi:type="arc"
   style="fill:#bee3ee;fill-opacity:1;fill-rule:evenodd;stroke:none"
   id="path5428-8-1-8"
   sodipodi:cx="40.799915"
   sodipodi:cy="34.569763"
   sodipodi:rx="0.94379294"
   sodipodi:ry="0.94379294"
   d="m 41.743708,34.569763 a 0.94379294,0.94379294 0 1 1 -1.887586,0 0.94379294,0.94379294 0 1 1 1.887586,0 z"
   transform="matrix(0.13000646,0,0,0.13000646,-0.55268682,87.10579)" /><path
   style="fill:#c4e5ef;fill-opacity:1;fill-rule:evenodd;stroke:#000000;stroke-width:0.04456752;stroke-miterlimit:4;stroke-opacity:1;stroke-dasharray:none"
   d="m 13.247876,49.71363 c -1.57648,0 -2.924756,1.348132 -2.924756,2.924756 0,1.57648 1.348291,2.785458 2.924756,2.785458 0.09316,0 0.188547,0.0081 0.278561,0 0.01124,-0.001 -0.01124,-0.137383 0,-0.138957 0.08369,-0.416743 0.332101,-0.905654 0.557131,-1.253385 0.64051,-0.990453 1.136051,-1.686976 1.81056,-1.949828 -0.252979,-1.31418 -1.266648,-2.367656 -2.64619,-2.367656 z m -0.138957,7.799323 c -1.888494,0.20325 -3.1793819,0.657564 -3.2032891,1.253542 -0.031598,0.794637 2.2554911,1.515997 5.1531151,1.531947 2.897642,0.01574 5.26053,-0.598187 5.292399,-1.392664 0.01884,-0.487964 -0.894755,-0.967081 -2.228377,-1.253541 -0.856696,0.892542 -2.354598,1.570005 -3.342555,1.114258 -0.439164,-0.202603 -0.751681,-0.734629 -0.974978,-1.253542 -0.22141,0.01518 -0.487485,-0.0222 -0.69641,0 z"
   id="path5408-0-1"
   inkscape:connector-curvature="0" /><path
   style="fill:#a9dae8;fill-opacity:1;fill-rule:evenodd;stroke:#000000;stroke-width:0.04456752;stroke-miterlimit:4;stroke-opacity:1;stroke-dasharray:none"
   d="m 17.704628,51.384922 c -0.713938,0.158243 -1.526264,0.607033 -2.228376,1.392668 -1.404036,1.571583 -1.88884,3.785984 -1.114258,4.874582 0.774579,1.088519 2.495585,0.735891 3.899669,-0.835695 0.975925,-1.092465 1.551055,-2.518594 1.531948,-3.621121 -0.862696,-0.251236 -1.536053,-0.983662 -1.949843,-1.810543 -0.05052,0.0081 -0.08844,-0.01124 -0.138957,0 z"
   id="path5408-06"
   inkscape:connector-curvature="0" /><path
   style="fill:#6ec2d7;fill-opacity:1;fill-rule:evenodd;stroke:#000000;stroke-width:0.04456752;stroke-miterlimit:4;stroke-opacity:1;stroke-dasharray:none"
   d="m 22.439929,46.231791 c -0.457328,-0.04423 -0.897439,0.0062 -1.392664,0.138957 -1.980938,0.532022 -3.372497,2.445906 -3.064026,4.178205 0.308571,1.732279 2.197268,2.62113 4.178206,2.089109 1.703129,-0.457485 2.80619,-1.852108 2.924738,-3.342572 -0.989345,-0.493016 -1.674497,-1.578693 -1.810542,-2.785475 -0.271618,-0.09949 -0.530759,-0.249522 -0.835695,-0.278561 z"
   id="path5408-06-7"
   inkscape:connector-curvature="0" /><path
   style="fill:#35a6c2;fill-opacity:1;fill-rule:evenodd;stroke:#000000;stroke-width:0.04456752;stroke-miterlimit:4;stroke-opacity:1;stroke-dasharray:none"
   d="m 27.871594,41.914306 c -2.069779,0 -3.760385,1.690606 -3.760385,3.760385 0,2.069797 1.690606,3.760389 3.760385,3.760389 0.928708,0 1.712907,-0.415478 2.367659,-0.974978 -0.816429,-0.757209 -1.392665,-1.943146 -1.392665,-3.342555 0,-1.027403 0.36005,-1.91905 0.835695,-2.646206 -0.555236,-0.325309 -1.120578,-0.55713 -1.810563,-0.55713 z"
   id="path5428-82"
   inkscape:connector-curvature="0" /><path
   style="fill:#298196;fill-opacity:1;fill-rule:evenodd"
   d="m 54.590803,10.614191 c -0.291672,0.06475 -0.789739,0.674461 -1.583412,1.961322 -2.096422,3.39906 -6.6977,12.116763 -12.290091,18.128312 -0.439798,-0.154756 -0.855592,-0.294672 -1.320974,-0.395265 -0.108962,-0.02361 -0.224389,0.03157 -0.335097,0.01124 1.334867,-6.387928 2.95604,-16.269412 3.391243,-19.463843 0.250758,-1.8401078 0.07579,-3.2026895 -0.29641,-3.0775103 -0.223602,0.075793 -0.478962,0.711414 -0.841853,2.0726243 -0.963292,3.613982 -3.953377,12.965578 -6.21465,20.389693 -1.047933,0.150033 -2.104663,0.360048 -3.229581,0.804428 -0.806796,-5.270181 -2.560979,-12.762343 -3.462587,-15.427311 -0.594714,-1.759267 -1.15074,-2.96924 -1.393298,-2.741652 -0.145283,0.135809 -0.226919,0.780898 -0.101057,2.184001 0.333362,3.69994 0.96629,10.254121 1.392035,17.906915 -0.686462,0.444536 -1.395824,0.91497 -2.101791,1.473992 -1.709887,-2.428597 -3.449608,-4.242126 -4.67545,-5.828335 -1.794357,-2.321831 -3.088169,-3.590185 -1.655945,-0.385002 1.073991,2.403949 1.747064,4.800775 3.651441,8.509918 0.635141,1.236172 1.408143,2.674157 2.379424,4.254588 l 1.949036,-2.07332 c 9.935369,-9.280721 21.392054,4.604815 12.724535,12.221967 l 3.881891,2.933253 -0.03,0.101057 c 0.04894,0.03632 0.154756,0.0253 0.202602,0.06001 4.095393,3.06655 9.690928,7.032638 12.36657,8.240591 2.017747,0.91102 3.481807,1.380506 0.568816,-1.158003 -2.812572,-2.451009 -5.374659,-5.053141 -10.406938,-9.978872 0.382474,-0.590767 0.699256,-1.189584 0.984294,-1.808651 6.236835,0.869963 13.810023,0.745051 16.353948,0.467748 2.955912,-0.321515 5.308567,-1.688584 0.273192,-2.021597 -4.103349,-0.27114 -9.571147,-1.044145 -15.51203,-2.540388 0.08844,-0.781056 0.200241,-1.608586 0.161082,-2.387129 7.014207,-0.776162 15.961886,-3.384973 18.717465,-4.470144 2.944813,-1.159738 5.024067,-3.203084 -0.266248,-2.071945 -4.85611,1.039565 -11.714109,1.922113 -19.328858,2.07452 -0.13266,-0.351998 -0.308885,-0.686465 -0.467118,-1.025984 6.207258,-2.784812 13.900698,-7.856523 17.717903,-11.854132 2.18552,-2.289016 3.51538,-5.07392 -0.61919,-1.62545 -3.907202,3.25818 -12.204627,7.029653 -19.862678,9.773106 -0.400476,-0.41611 -0.727679,-0.881016 -1.179006,-1.238538 5.054215,-5.066342 9.293357,-15.970194 10.187022,-18.868547 0.582869,-1.890229 0.758791,-3.236261 0.272264,-3.128626 z M 35.492126,40.76289 c -2.396148,-0.522706 -4.807959,0.989502 -5.330741,3.385555 -0.522704,2.396148 0.989661,4.807894 3.385461,5.330757 2.39613,0.522704 4.807929,-0.989504 5.330725,-3.385556 l 0.03,-0.101058 c 0.463012,-2.369712 -1.056935,-4.714296 -3.416051,-5.229026 z"
   id="_121731384-6-3-5-5"
   inkscape:connector-curvature="0"
   inkscape:transform-center-x="-39.138624"
   inkscape:transform-center-y="-33.673149" /><path
   sodipodi:type="arc"
   style="fill:#def1f6;fill-opacity:1;fill-rule:evenodd;stroke:#000000;stroke-width:0.02142565;stroke-miterlimit:4;stroke-opacity:1;stroke-dasharray:none"
   id="path5428-8-1-6"
   sodipodi:cx="40.799915"
   sodipodi:cy="34.569763"
   sodipodi:rx="0.94379294"
   sodipodi:ry="0.94379294"
   d="m 41.743708,34.569763 a 0.94379294,0.94379294 0 1 1 -1.887586,0 0.94379294,0.94379294 0 1 1 1.887586,0 z"
   transform="matrix(2.0801027,0,0,2.0801027,-73.978805,-25.160379)" /><path
   sodipodi:type="arc"
   style="fill:#e2f3f7;fill-opacity:1;fill-rule:evenodd;stroke:#000000;stroke-width:0.04036119;stroke-miterlimit:4;stroke-opacity:1;stroke-dasharray:none"
   id="path5428-8-1-8-5"
   sodipodi:cx="40.799915"
   sodipodi:cy="34.569763"
   sodipodi:rx="0.94379294"
   sodipodi:ry="0.94379294"
   d="m 41.743708,34.569763 a 0.94379294,0.94379294 0 1 1 -1.887586,0 0.94379294,0.94379294 0 1 1 1.887586,0 z"
   transform="matrix(1.1042181,0,0,1.1042181,-38.532212,5.7744118)" /></svg>