<?xml version="1.0" encoding="UTF-8" standalone="no"?>
<!-- Creator: CorelDRAW -->

<svg
   xmlns:dc="http://purl.org/dc/elements/1.1/"
   xmlns:cc="http://creativecommons.org/ns#"
   xmlns:rdf="http://www.w3.org/1999/02/22-rdf-syntax-ns#"
   xmlns:svg="http://www.w3.org/2000/svg"
   xmlns="http://www.w3.org/2000/svg"
   xmlns:xlink="http://www.w3.org/1999/xlink"
   xmlns:sodipodi="http://sodipodi.sourceforge.net/DTD/sodipodi-0.dtd"
   xmlns:inkscape="http://www.inkscape.org/namespaces/inkscape"
   xml:space="preserve"
   width="256"
   height="256"
   style="fill-rule:evenodd"
   viewBox="0 0 72.24889 72.248891"
   id="svg2"
   version="1.1"
   inkscape:version="0.48.3.1 r9886"
   sodipodi:docname="huayra-motion.svg"
   inkscape:export-filename="/home/alumno/.icons/huayra-dev/22x22/all/start-here.png"
   inkscape:export-xdpi="123"
   inkscape:export-ydpi="123"><metadata
   id="metadata336"><rdf:RDF><cc:Work
       rdf:about=""><dc:format>image/svg+xml</dc:format><dc:type
         rdf:resource="http://purl.org/dc/dcmitype/StillImage" /><dc:title /></cc:Work></rdf:RDF></metadata><sodipodi:namedview
   pagecolor="#9b9b9b"
   bordercolor="#666666"
   borderopacity="1"
   objecttolerance="10"
   gridtolerance="10"
   guidetolerance="10"
   inkscape:pageopacity="0"
   inkscape:pageshadow="2"
   inkscape:window-width="1914"
   inkscape:window-height="1030"
   id="namedview334"
   showgrid="false"
   inkscape:zoom="1.2251098"
   inkscape:cx="149.67231"
   inkscape:cy="101.81805"
   inkscape:window-x="0"
   inkscape:window-y="25"
   inkscape:window-maximized="1"
   inkscape:current-layer="svg2" />
 <defs
   id="defs4"><linearGradient
     id="linearGradient5245"><stop
       id="stop5247"
       offset="0"
       style="stop-color:#e1f2f7;stop-opacity:1;" /><stop
       id="stop5249"
       offset="1"
       style="stop-color:#287d91;stop-opacity:1;" /></linearGradient><linearGradient
     id="linearGradient5154"><stop
       style="stop-color:#f0f8fb;stop-opacity:1;"
       offset="0"
       id="stop5156" /><stop
       style="stop-color:#c4e5ef;stop-opacity:0;"
       offset="1"
       id="stop5158" /></linearGradient><linearGradient
     id="linearGradient5063"><stop
       style="stop-color:#d8eef4;stop-opacity:1;"
       offset="0"
       id="stop5065" /><stop
       style="stop-color:#e1f2f7;stop-opacity:0;"
       offset="1"
       id="stop5067" /></linearGradient><linearGradient
     id="linearGradient4985"><stop
       style="stop-color:#e9f6f9;stop-opacity:1;"
       offset="0"
       id="stop4987" /><stop
       style="stop-color:#6ac2d6;stop-opacity:0;"
       offset="1"
       id="stop4989" /></linearGradient><linearGradient
     id="linearGradient4975"><stop
       style="stop-color:#73c5d9;stop-opacity:1;"
       offset="0"
       id="stop4977" /><stop
       style="stop-color:#236e80;stop-opacity:1;"
       offset="1"
       id="stop4979" /></linearGradient><inkscape:path-effect
     effect="skeletal"
     id="path-effect3279"
     is_visible="true"
     pattern="M 0,5 C 0,2.24 2.24,0 5,0 7.76,0 10,2.24 10,5 10,7.76 7.76,10 5,10 2.24,10 0,7.76 0,5 z"
     copytype="single_stretched"
     prop_scale="1"
     scale_y_rel="false"
     spacing="0"
     normal_offset="0"
     tang_offset="0"
     prop_units="false"
     vertical_pattern="false"
     fuse_tolerance="0" /><inkscape:path-effect
     effect="skeletal"
     id="path-effect3245"
     is_visible="true"
     pattern="M 0,5 C 0,2.24 2.24,0 5,0 7.76,0 10,2.24 10,5 10,7.76 7.76,10 5,10 2.24,10 0,7.76 0,5 z"
     copytype="single"
     prop_scale="0.07"
     scale_y_rel="true"
     spacing="0.3"
     normal_offset="0"
     tang_offset="0"
     prop_units="false"
     vertical_pattern="false"
     fuse_tolerance="0" /><style
     type="text/css"
     id="style6">
   
    .fil0 {fill:#99AE6A}
    .fil4 {fill:#73A848}
    .fil8 {fill:#6F448A;fill-rule:nonzero}
    .fil1 {fill:#99AE6A;fill-rule:nonzero}
    .fil3 {fill:#ABA0C0;fill-rule:nonzero}
    .fil2 {fill:#BA8FBA;fill-rule:nonzero}
    .fil5 {fill:#73A848;fill-rule:nonzero}
    .fil6 {fill:#98227A;fill-rule:nonzero}
    .fil9 {fill:#B299BF;fill-rule:nonzero}
    .fil7 {fill:#D189B2;fill-rule:nonzero}
   
  </style><linearGradient
     inkscape:collect="always"
     xlink:href="#linearGradient4975"
     id="linearGradient4981"
     x1="150.12842"
     y1="343.41885"
     x2="141.27963"
     y2="313.30615"
     gradientUnits="userSpaceOnUse" /><linearGradient
     inkscape:collect="always"
     xlink:href="#linearGradient4985"
     id="linearGradient4991"
     x1="209.90964"
     y1="125.00735"
     x2="228.37466"
     y2="159.5919"
     gradientUnits="userSpaceOnUse" /><linearGradient
     inkscape:collect="always"
     xlink:href="#linearGradient5154"
     id="linearGradient5160"
     x1="40.254642"
     y1="37.115364"
     x2="61.34063"
     y2="66.417572"
     gradientUnits="userSpaceOnUse"
     gradientTransform="matrix(1.2321225,0,0,1.2321225,-30.173165,-13.039225)" /><linearGradient
     inkscape:collect="always"
     xlink:href="#linearGradient4975"
     id="linearGradient5257"
     x1="59.446133"
     y1="38.337811"
     x2="49.868595"
     y2="31.196501"
     gradientUnits="userSpaceOnUse"
     gradientTransform="matrix(1.215279,0.20303425,-0.20303425,1.215279,-16.316172,-22.675501)" /><linearGradient
     inkscape:collect="always"
     xlink:href="#linearGradient4975"
     id="linearGradient5265"
     x1="53.646587"
     y1="47.038986"
     x2="44.327694"
     y2="40.473587"
     gradientUnits="userSpaceOnUse"
     gradientTransform="matrix(1.215211,0.20344032,-0.20344032,1.215211,-18.292077,-21.197487)" /><linearGradient
     inkscape:collect="always"
     xlink:href="#linearGradient4975"
     id="linearGradient5273"
     x1="49.176533"
     y1="58.161556"
     x2="42.248756"
     y2="53.55426"
     gradientUnits="userSpaceOnUse"
     gradientTransform="matrix(1.2321225,0,0,1.2321225,-29.773943,-11.000299)" /><linearGradient
     inkscape:collect="always"
     xlink:href="#linearGradient4975"
     id="linearGradient5281"
     x1="47.042896"
     y1="66.222923"
     x2="35.628872"
     y2="57.929787"
     gradientUnits="userSpaceOnUse"
     gradientTransform="matrix(1.2321225,0,0,1.2321225,-29.722482,-12.801421)" /><linearGradient
     inkscape:collect="always"
     xlink:href="#linearGradient4975"
     id="linearGradient5289"
     x1="34.375187"
     y1="50.968788"
     x2="42.396248"
     y2="50.968788"
     gradientUnits="userSpaceOnUse"
     gradientTransform="matrix(1.2636709,0,0,1.2636709,-30.105232,-14.844882)" /><linearGradient
     inkscape:collect="always"
     xlink:href="#linearGradient4975"
     id="linearGradient5297"
     x1="39.856121"
     y1="34.569763"
     x2="41.74371"
     y2="34.569763"
     gradientUnits="userSpaceOnUse" /><linearGradient
     inkscape:collect="always"
     xlink:href="#linearGradient4975"
     id="linearGradient5305"
     x1="39.856121"
     y1="34.569763"
     x2="41.74371"
     y2="34.569763"
     gradientUnits="userSpaceOnUse" /></defs>
 
<path
   style="fill:url(#linearGradient5289);fill-opacity:1;fill-rule:evenodd;stroke:none"
   d="m 19.194664,43.837886 c -3.159138,0 -5.860972,2.701546 -5.860972,5.860972 0,3.159137 2.701866,5.58183 5.860972,5.58183 0.186685,0 0.377833,0.01623 0.558214,0 0.02252,-0.002 -0.02252,-0.275304 0,-0.278459 0.167708,-0.835118 -0.08506,-2.538642 0.74443,-4.143747 0.82949,-1.605105 1.620701,-2.947673 2.972361,-3.474407 -0.506949,-2.633509 -1.510391,-3.545412 -4.274881,-3.545412 z"
   id="path5408-0-1"
   inkscape:connector-curvature="0"
   sodipodi:nodetypes="csscczccc" /><path
   style="fill:url(#linearGradient5273);fill-opacity:1;fill-rule:evenodd;stroke:none"
   d="m 25.095781,50.570025 c -1.110573,0.766298 -2.187577,2.097604 -2.842249,3.928204 -1.308814,3.661604 -0.599819,7.783747 1.480277,9.106789 2.080031,1.322909 4.777185,-0.475031 6.086074,-4.136672 0.909682,-2.545266 0.902501,-5.382598 0.104215,-7.25408 -1.649232,0.169598 -3.308945,-0.614863 -4.590527,-1.741049 -0.08074,0.04893 -0.158993,0.04219 -0.237545,0.09649 z"
   id="path5408-06"
   inkscape:connector-curvature="0" /><path
   style="fill:url(#linearGradient5265);fill-opacity:1;fill-rule:evenodd;stroke:none"
   d="m 32.197625,35.535163 c -0.875343,0.285495 -1.643168,0.731009 -2.446189,1.371925 -3.211361,2.565506 -4.232262,7.196182 -2.276682,10.130179 1.955746,2.933881 6.137064,3.05176 9.348426,0.486257 2.760934,-2.205851 3.668393,-5.651575 2.690948,-8.483858 -2.212259,-0.112093 -4.341103,-1.556526 -5.558628,-3.663678 -0.578603,0.03509 -1.174818,-0.03265 -1.758114,0.158542 z"
   id="path5408-06-7"
   inkscape:connector-curvature="0" /><path
   style="fill:url(#linearGradient5257);fill-opacity:1;fill-rule:evenodd;stroke:none"
   d="m 38.687491,23.633124 c -2.844189,3.018897 -2.701489,7.807895 0.317409,10.652084 3.018921,2.844214 7.807899,2.701495 10.652091,-0.3174 1.276184,-1.354579 1.747791,-3.069308 1.831456,-4.793142 -2.22633,0.150291 -4.747925,-0.638891 -6.789047,-2.561891 -1.49853,-1.411809 -2.304286,-3.162219 -2.711278,-4.8552 -1.237462,0.362821 -2.352453,0.86885 -3.300598,1.875235 z"
   id="path5428-82"
   inkscape:connector-curvature="0" /><path
   sodipodi:type="arc"
   style="fill:url(#linearGradient5305);fill-opacity:1;fill-rule:evenodd;stroke:none"
   id="path5428-8-1-8-5"
   sodipodi:cx="40.799915"
   sodipodi:cy="34.569763"
   sodipodi:rx="0.94379294"
   sodipodi:ry="0.94379294"
   d="m 41.743708,34.569763 a 0.94379294,0.94379294 0 1 1 -1.887586,0 0.94379294,0.94379294 0 1 1 1.887586,0 z"
   transform="matrix(2.212763,0,0,2.212763,-83.01384,-43.519805)" /><path
   sodipodi:type="arc"
   style="fill:url(#linearGradient5297);fill-opacity:1;fill-rule:evenodd;stroke:none"
   id="path5428-8-1-6"
   sodipodi:cx="40.799915"
   sodipodi:cy="34.569763"
   sodipodi:rx="0.94379294"
   sodipodi:ry="0.94379294"
   d="m 41.743708,34.569763 a 0.94379294,0.94379294 0 1 1 -1.887586,0 0.94379294,0.94379294 0 1 1 1.887586,0 z"
   transform="matrix(4.1683561,0,0,4.1683561,-156.41063,-105.11396)" /><path
   sodipodi:type="arc"
   style="fill:url(#linearGradient4981);fill-opacity:1;stroke:#000000;stroke-width:1.99608926;stroke-miterlimit:4;stroke-opacity:1;stroke-dasharray:none"
   id="path4457"
   sodipodi:cx="148.96623"
   sodipodi:cy="326.60593"
   sodipodi:rx="19.998207"
   sodipodi:ry="19.998207"
   d="m 168.96444,326.60593 a 19.998207,19.998207 0 1 1 -39.99641,0 19.998207,19.998207 0 1 1 39.99641,0 z"
   transform="matrix(0.56555032,0,0,0.56555032,-28.565537,-168.59895)" /><path
   sodipodi:type="arc"
   style="fill:url(#linearGradient4991);fill-opacity:1;stroke:none"
   id="path4983"
   sodipodi:cx="213.04213"
   sodipodi:cy="133.562"
   sodipodi:rx="19.181953"
   sodipodi:ry="17.141321"
   d="m 232.22408,133.562 a 19.181953,17.141321 0 1 1 -38.3639,0 19.181953,17.141321 0 1 1 38.3639,0 z"
   transform="matrix(0.44380802,0,0,0.51572178,-36.7355,-54.053836)" /><path
   style="fill:url(#linearGradient5281);fill-opacity:1;fill-rule:evenodd;stroke:none"
   d="m 18.764993,63.876632 c -3.784388,0.407295 -6.371221,1.317706 -6.419131,2.511996 -0.06332,1.59239 4.519821,3.037933 10.326423,3.069896 9.017895,0.131895 14.856799,-1.299069 14.920662,-2.891136 0.03775,-0.977841 -3.298293,-2.339358 -7.777094,-2.311292 -1.716749,2.18999 -4.801487,3.008415 -6.566375,2.629248 -1.764887,-0.379166 -2.641657,-1.968853 -3.089125,-3.008712 -0.443689,0.03042 -0.976881,-0.04449 -1.395549,0 z"
   id="path5408-0-1-4"
   inkscape:connector-curvature="0"
   sodipodi:nodetypes="scccczccs" /><path
   style="fill:url(#linearGradient5160);fill-opacity:1;fill-rule:evenodd;stroke:none"
   d="m 42.051932,23.099132 c -5.773947,2.258633 -4.728787,8.699922 -2.171161,11.842447 0.880276,-1.671054 0.539393,-4.70679 2.164685,-6.007024 0.824143,-0.659315 1.845957,-0.671208 2.599291,-1.689792 -0.05108,-0.03289 -1.195566,-1.50356 -1.246366,-1.53758 -1.710679,-1.145573 -0.666047,-1.005281 -1.346449,-2.608051 z M 6.9225183,31.218753 c -1.153388,0 0.578692,1.035929 0.578692,2.189315 0,1.153387 -1.73208,1.983474 -0.578692,1.983474 1.153385,0 2.086393,-0.933008 2.086393,-2.086395 0,-1.153386 -0.933008,-2.086394 -2.086393,-2.086394 z m 28.0060637,5.745578 c -1.290009,0.436631 -2.800501,0.453481 -5.255413,2.187429 -2.454913,1.733948 -4.151121,4.984068 -2.212605,7.929372 0.317341,0.482095 1.10258,1.63622 1.526025,1.969054 2.34073,-3.554029 2.768027,-8.182631 7.524425,-10.014886 -0.174106,-0.238596 -1.434369,-1.811251 -1.582432,-2.070969 z M 12.865495,35.386099 c -2.172725,0 0.931814,0.03698 0.586267,3.131161 -0.241143,2.159301 -1.47012,3.574255 0.652502,3.11035 0.790536,-0.172774 1.773492,-1.632435 1.65831,-2.826109 -0.208686,-2.162682 -0.724354,-3.415402 -2.897079,-3.415402 z m 5.97665,9.421334 c -3.043957,0.806277 -3.646726,1.567876 -4.675939,2.534004 -0.614048,0.57641 -0.792536,1.158522 -0.451418,1.863337 0.787819,-0.173681 2.236099,-1.238993 3.084254,-1.105903 2.623601,0.411685 2.355104,3.444724 3.261238,3.755625 0.095,-0.480503 0.236517,-0.978401 0.488999,-1.466997 0.829501,-1.605104 0.405513,-2.191035 1.757177,-2.71777 -0.449364,-1.769641 -2.024419,-2.919887 -3.464311,-2.862296 z m 6.6908,6.250814 c -0.0807,0.04893 -0.160506,0.04351 -0.239066,0.09779 -1.110573,0.766298 -2.181526,2.092254 -2.836192,3.922857 -0.04207,0.117686 -0.07074,0.240075 -0.108663,0.358598 -0.02674,6.336336 1.374051,0.121906 4.542255,-2.770991 0.140981,-0.12873 0.204466,-0.32615 0.304265,-0.488999 -0.595015,-0.298876 -1.161197,-0.678664 -1.662595,-1.119264 z"
   id="path5408-0-1-6"
   inkscape:connector-curvature="0"
   sodipodi:nodetypes="ccscccsssssczccccssssscsscsccccccccscc" /><path
   style="fill:none;stroke:#000000;stroke-width:1.12888892;stroke-miterlimit:4;stroke-opacity:1;stroke-dasharray:none"
   d="m 41.679095,21.847663 c -1.238465,0.35938 -2.352797,0.859792 -3.303735,1.863538 -2.852569,3.010981 -2.726756,7.799284 0.284225,10.651853 3.011006,2.852593 7.809996,2.728574 10.662567,-0.282407 1.279944,-1.351026 1.750719,-3.067258 1.839176,-4.790849 -2.226739,0.144102 -4.744633,-0.656417 -6.780402,-2.585083 -1.494601,-1.415967 -2.299545,-3.162947 -2.701831,-4.857052 z M 7.0890603,30.849767 c -1.153385,0 -2.086394,0.933007 -2.086394,2.086393 0,1.153387 0.933009,2.086394 2.086394,2.086394 1.153388,0 2.086395,-0.933007 2.086395,-2.086394 0,-1.153386 -0.933007,-2.086393 -2.086395,-2.086393 z m 6.3569827,3.868522 c -2.172725,0 -3.9337217,1.760996 -3.9337217,3.933723 0,2.172725 1.7609967,3.944587 3.9337217,3.944587 2.172726,0 3.933723,-1.771862 3.933723,-3.944587 0,-2.172727 -1.760997,-3.933723 -3.933723,-3.933723 z m 20.669134,0.464265 c -0.577783,0.04667 -1.742318,0.322564 -2.321666,0.525401 -0.869451,0.302976 -1.626815,0.76742 -2.416834,1.424295 -3.159324,2.62932 -4.090313,7.278789 -2.076349,10.173022 2.014126,2.894115 6.19853,2.927467 9.357854,0.298149 2.716194,-2.260718 3.551091,-5.725548 2.517105,-8.537684 -2.214057,-0.06775 -3.800616,-1.800847 -5.06011,-3.883183 z m -14.929168,8.471263 c -3.159138,0 -5.857117,2.70856 -5.857117,5.867983 0,3.159138 2.698011,5.574584 5.857117,5.574584 0.186685,0 0.384683,0.01623 0.565066,0 0.02252,-0.002 -0.02252,-0.268512 0,-0.271666 0.167708,-0.835117 -0.09054,-2.535083 0.73893,-4.140188 0.829493,-1.605106 1.6258,-2.950589 2.977459,-3.477324 -0.506948,-2.633509 -1.516965,-3.542524 -4.281455,-3.542524 z m 0.143819,20.207334 c -0.115791,-2.92e-4 -0.221332,-2.57e-4 -0.326,0.01087 -3.784388,0.407295 -6.374275,1.315903 -6.422181,2.510192 -0.06332,1.592388 4.516702,3.043295 10.323304,3.075259 9.017896,0.131895 14.856028,-1.309323 14.919893,-2.901392 0.03774,-0.977841 -3.290846,-2.331796 -7.769645,-2.303727 -1.716753,2.189987 -4.809428,3.008893 -6.574316,2.629727 -1.764888,-0.379165 -2.638655,-1.9702 -3.086126,-3.010059 -0.332765,0.02282 -0.717545,-0.01 -1.064929,-0.01087 z"
   id="path5408-0-1-9"
   inkscape:connector-curvature="0"
   sodipodi:nodetypes="cssscscssssssssssccccccccssccsccccccccccsc" /><path
   style="fill:none;stroke:#000000;stroke-width:1.12888892;stroke-miterlimit:4;stroke-opacity:1;stroke-dasharray:none"
   d="m 25.345266,50.636876 c -0.08074,0.04893 -0.160514,0.04351 -0.239066,0.09779 -1.110572,0.766298 -2.192386,2.092258 -2.847058,3.922856 -1.308812,3.661605 -0.602233,7.783201 1.477862,9.106242 2.080031,1.322909 4.776428,-0.467679 6.085318,-4.129324 0.909681,-2.545261 0.906955,-5.38743 0.108663,-7.258911 -1.649232,0.169599 -3.304139,-0.612475 -4.585721,-1.738662 z"
   id="path5408-0-1-9-5"
   inkscape:connector-curvature="0"
   sodipodi:nodetypes="cccccccc" /></svg>